<mxfile host="app.diagrams.net" modified="2021-06-15T15:27:32.561Z" agent="5.0 (X11; Linux x86_64) AppleWebKit/537.36 (KHTML, like Gecko) Chrome/80.0.3987.122 Safari/537.36" etag="rMqi6nZWIuiLO8prh59M" version="14.7.3" type="github" pages="3">
  <diagram id="6VJyNn4VoTCtrboSLJN4" name="Page-1">
    <mxGraphModel dx="1902" dy="945" grid="1" gridSize="10" guides="1" tooltips="1" connect="1" arrows="1" fold="1" page="1" pageScale="1" pageWidth="1654" pageHeight="1169" math="0" shadow="0">
      <root>
        <mxCell id="0" />
        <mxCell id="1" parent="0" />
        <mxCell id="41I4AsRI8d2fky_zqglW-1" value="" style="whiteSpace=wrap;html=1;shadow=1;fontSize=18;fillColor=#f5f5f5;strokeColor=#666666;" parent="1" vertex="1">
          <mxGeometry x="40" y="70" width="430" height="410" as="geometry" />
        </mxCell>
        <mxCell id="41I4AsRI8d2fky_zqglW-2" value="data_provider" style="text;html=1;strokeColor=none;fillColor=none;align=center;verticalAlign=middle;whiteSpace=wrap;rounded=0;fontSize=21;fontStyle=1" parent="1" vertex="1">
          <mxGeometry x="40" y="40" width="430" height="26" as="geometry" />
        </mxCell>
        <mxCell id="41I4AsRI8d2fky_zqglW-3" value="" style="rounded=0;whiteSpace=wrap;html=1;fontSize=14;" parent="1" vertex="1">
          <mxGeometry x="270" y="277" width="90" height="200" as="geometry" />
        </mxCell>
        <mxCell id="41I4AsRI8d2fky_zqglW-4" value="axis_fifo" style="text;html=1;strokeColor=none;fillColor=none;align=center;verticalAlign=middle;whiteSpace=wrap;rounded=0;fontSize=16;fontStyle=1" parent="1" vertex="1">
          <mxGeometry x="270" y="255" width="90" height="20" as="geometry" />
        </mxCell>
        <mxCell id="41I4AsRI8d2fky_zqglW-5" value="" style="endArrow=blockThin;html=1;fontSize=16;endFill=1;" parent="1" edge="1">
          <mxGeometry width="50" height="50" relative="1" as="geometry">
            <mxPoint x="160" y="357" as="sourcePoint" />
            <mxPoint x="270" y="357" as="targetPoint" />
          </mxGeometry>
        </mxCell>
        <mxCell id="41I4AsRI8d2fky_zqglW-6" value="" style="endArrow=blockThin;html=1;fontSize=16;endFill=1;" parent="1" edge="1">
          <mxGeometry width="50" height="50" relative="1" as="geometry">
            <mxPoint x="270" y="402.5" as="sourcePoint" />
            <mxPoint x="160" y="402.5" as="targetPoint" />
          </mxGeometry>
        </mxCell>
        <mxCell id="41I4AsRI8d2fky_zqglW-7" value="" style="endArrow=blockThin;html=1;fontSize=16;endFill=1;" parent="1" edge="1">
          <mxGeometry width="50" height="50" relative="1" as="geometry">
            <mxPoint x="160" y="451" as="sourcePoint" />
            <mxPoint x="270" y="451" as="targetPoint" />
          </mxGeometry>
        </mxCell>
        <mxCell id="41I4AsRI8d2fky_zqglW-8" value="" style="endArrow=blockThin;html=1;fontSize=16;fontStyle=1;strokeWidth=3;endSize=0;startSize=0;endFill=1;" parent="1" edge="1">
          <mxGeometry width="50" height="50" relative="1" as="geometry">
            <mxPoint x="160" y="311" as="sourcePoint" />
            <mxPoint x="270" y="311" as="targetPoint" />
          </mxGeometry>
        </mxCell>
        <mxCell id="41I4AsRI8d2fky_zqglW-9" value="tvalid" style="text;html=1;strokeColor=none;fillColor=none;align=center;verticalAlign=middle;whiteSpace=wrap;rounded=0;fontSize=16;" parent="1" vertex="1">
          <mxGeometry x="160" y="335.5" width="110" height="20" as="geometry" />
        </mxCell>
        <mxCell id="41I4AsRI8d2fky_zqglW-10" value="data (32 bit)" style="text;html=1;strokeColor=none;fillColor=none;align=center;verticalAlign=middle;whiteSpace=wrap;rounded=0;fontSize=16;" parent="1" vertex="1">
          <mxGeometry x="160" y="290" width="110" height="20" as="geometry" />
        </mxCell>
        <mxCell id="41I4AsRI8d2fky_zqglW-11" value="tready" style="text;html=1;strokeColor=none;fillColor=none;align=center;verticalAlign=middle;whiteSpace=wrap;rounded=0;fontSize=16;" parent="1" vertex="1">
          <mxGeometry x="160" y="381" width="110" height="20" as="geometry" />
        </mxCell>
        <mxCell id="41I4AsRI8d2fky_zqglW-12" value="tlast" style="text;html=1;strokeColor=none;fillColor=none;align=center;verticalAlign=middle;whiteSpace=wrap;rounded=0;fontSize=16;" parent="1" vertex="1">
          <mxGeometry x="160" y="431" width="110" height="20" as="geometry" />
        </mxCell>
        <mxCell id="41I4AsRI8d2fky_zqglW-13" value="data (32 bit)" style="text;html=1;strokeColor=none;fillColor=none;align=center;verticalAlign=middle;whiteSpace=wrap;rounded=0;fontSize=16;" parent="1" vertex="1">
          <mxGeometry x="360" y="290" width="110" height="20" as="geometry" />
        </mxCell>
        <mxCell id="41I4AsRI8d2fky_zqglW-14" value="" style="endArrow=blockThin;html=1;fontSize=16;fontStyle=1;strokeWidth=3;endSize=0;startSize=0;endFill=1;" parent="1" edge="1">
          <mxGeometry width="50" height="50" relative="1" as="geometry">
            <mxPoint x="360" y="311" as="sourcePoint" />
            <mxPoint x="470" y="311" as="targetPoint" />
          </mxGeometry>
        </mxCell>
        <mxCell id="41I4AsRI8d2fky_zqglW-15" value="" style="endArrow=blockThin;html=1;fontSize=16;endFill=1;" parent="1" edge="1">
          <mxGeometry width="50" height="50" relative="1" as="geometry">
            <mxPoint x="360" y="357" as="sourcePoint" />
            <mxPoint x="470" y="357" as="targetPoint" />
          </mxGeometry>
        </mxCell>
        <mxCell id="41I4AsRI8d2fky_zqglW-16" value="" style="endArrow=blockThin;html=1;fontSize=16;endFill=1;" parent="1" edge="1">
          <mxGeometry width="50" height="50" relative="1" as="geometry">
            <mxPoint x="470" y="402.5" as="sourcePoint" />
            <mxPoint x="360" y="402.5" as="targetPoint" />
          </mxGeometry>
        </mxCell>
        <mxCell id="41I4AsRI8d2fky_zqglW-17" value="" style="endArrow=blockThin;html=1;fontSize=16;endFill=1;" parent="1" edge="1">
          <mxGeometry width="50" height="50" relative="1" as="geometry">
            <mxPoint x="361" y="451" as="sourcePoint" />
            <mxPoint x="471" y="451" as="targetPoint" />
          </mxGeometry>
        </mxCell>
        <mxCell id="41I4AsRI8d2fky_zqglW-18" value="tlast" style="text;html=1;strokeColor=none;fillColor=none;align=center;verticalAlign=middle;whiteSpace=wrap;rounded=0;fontSize=16;" parent="1" vertex="1">
          <mxGeometry x="360" y="431" width="110" height="20" as="geometry" />
        </mxCell>
        <mxCell id="41I4AsRI8d2fky_zqglW-19" value="tready" style="text;html=1;strokeColor=none;fillColor=none;align=center;verticalAlign=middle;whiteSpace=wrap;rounded=0;fontSize=16;" parent="1" vertex="1">
          <mxGeometry x="360" y="381" width="110" height="20" as="geometry" />
        </mxCell>
        <mxCell id="41I4AsRI8d2fky_zqglW-20" value="tvalid" style="text;html=1;strokeColor=none;fillColor=none;align=center;verticalAlign=middle;whiteSpace=wrap;rounded=0;fontSize=16;" parent="1" vertex="1">
          <mxGeometry x="360" y="335.5" width="110" height="20" as="geometry" />
        </mxCell>
        <mxCell id="41I4AsRI8d2fky_zqglW-21" value="" style="rounded=0;whiteSpace=wrap;html=1;fontSize=14;fillColor=#f5f5f5;strokeColor=#666666;fontColor=#333333;" parent="1" vertex="1">
          <mxGeometry x="770" y="276" width="90" height="200" as="geometry" />
        </mxCell>
        <mxCell id="41I4AsRI8d2fky_zqglW-22" value="32 to 256" style="text;html=1;strokeColor=none;fillColor=none;align=center;verticalAlign=middle;whiteSpace=wrap;rounded=0;fontSize=16;fontStyle=1" parent="1" vertex="1">
          <mxGeometry x="770" y="250" width="90" height="20" as="geometry" />
        </mxCell>
        <mxCell id="41I4AsRI8d2fky_zqglW-23" value="" style="endArrow=blockThin;html=1;fontSize=16;endFill=1;" parent="1" edge="1">
          <mxGeometry width="50" height="50" relative="1" as="geometry">
            <mxPoint x="660" y="356" as="sourcePoint" />
            <mxPoint x="770" y="356" as="targetPoint" />
          </mxGeometry>
        </mxCell>
        <mxCell id="41I4AsRI8d2fky_zqglW-24" value="" style="endArrow=blockThin;html=1;fontSize=16;endFill=1;" parent="1" edge="1">
          <mxGeometry width="50" height="50" relative="1" as="geometry">
            <mxPoint x="770" y="401.5" as="sourcePoint" />
            <mxPoint x="660" y="401.5" as="targetPoint" />
          </mxGeometry>
        </mxCell>
        <mxCell id="41I4AsRI8d2fky_zqglW-25" value="" style="endArrow=blockThin;html=1;fontSize=16;endFill=1;" parent="1" edge="1">
          <mxGeometry width="50" height="50" relative="1" as="geometry">
            <mxPoint x="660" y="450" as="sourcePoint" />
            <mxPoint x="770" y="450" as="targetPoint" />
          </mxGeometry>
        </mxCell>
        <mxCell id="41I4AsRI8d2fky_zqglW-26" value="" style="endArrow=blockThin;html=1;fontSize=16;fontStyle=1;strokeWidth=3;endSize=0;startSize=0;endFill=1;" parent="1" edge="1">
          <mxGeometry width="50" height="50" relative="1" as="geometry">
            <mxPoint x="660" y="310" as="sourcePoint" />
            <mxPoint x="770" y="310" as="targetPoint" />
          </mxGeometry>
        </mxCell>
        <mxCell id="41I4AsRI8d2fky_zqglW-27" value="tvalid" style="text;html=1;strokeColor=none;fillColor=none;align=center;verticalAlign=middle;whiteSpace=wrap;rounded=0;fontSize=16;" parent="1" vertex="1">
          <mxGeometry x="660" y="334.5" width="110" height="20" as="geometry" />
        </mxCell>
        <mxCell id="41I4AsRI8d2fky_zqglW-28" value="data (32 bit)" style="text;html=1;strokeColor=none;fillColor=none;align=center;verticalAlign=middle;whiteSpace=wrap;rounded=0;fontSize=16;" parent="1" vertex="1">
          <mxGeometry x="660" y="289" width="110" height="20" as="geometry" />
        </mxCell>
        <mxCell id="41I4AsRI8d2fky_zqglW-29" value="tready" style="text;html=1;strokeColor=none;fillColor=none;align=center;verticalAlign=middle;whiteSpace=wrap;rounded=0;fontSize=16;" parent="1" vertex="1">
          <mxGeometry x="660" y="380" width="110" height="20" as="geometry" />
        </mxCell>
        <mxCell id="41I4AsRI8d2fky_zqglW-30" value="tlast" style="text;html=1;strokeColor=none;fillColor=none;align=center;verticalAlign=middle;whiteSpace=wrap;rounded=0;fontSize=16;" parent="1" vertex="1">
          <mxGeometry x="660" y="430" width="110" height="20" as="geometry" />
        </mxCell>
        <mxCell id="41I4AsRI8d2fky_zqglW-31" value="data (256 bit)" style="text;html=1;strokeColor=none;fillColor=none;align=center;verticalAlign=middle;whiteSpace=wrap;rounded=0;fontSize=16;" parent="1" vertex="1">
          <mxGeometry x="860" y="289" width="110" height="20" as="geometry" />
        </mxCell>
        <mxCell id="41I4AsRI8d2fky_zqglW-32" value="" style="endArrow=blockThin;html=1;fontSize=16;fontStyle=1;strokeWidth=3;endSize=0;startSize=0;endFill=1;" parent="1" edge="1">
          <mxGeometry width="50" height="50" relative="1" as="geometry">
            <mxPoint x="860" y="310" as="sourcePoint" />
            <mxPoint x="970" y="310" as="targetPoint" />
          </mxGeometry>
        </mxCell>
        <mxCell id="41I4AsRI8d2fky_zqglW-33" value="" style="endArrow=blockThin;html=1;fontSize=16;endFill=1;" parent="1" edge="1">
          <mxGeometry width="50" height="50" relative="1" as="geometry">
            <mxPoint x="860" y="356" as="sourcePoint" />
            <mxPoint x="970" y="356" as="targetPoint" />
          </mxGeometry>
        </mxCell>
        <mxCell id="41I4AsRI8d2fky_zqglW-34" value="" style="endArrow=blockThin;html=1;fontSize=16;endFill=1;" parent="1" edge="1">
          <mxGeometry width="50" height="50" relative="1" as="geometry">
            <mxPoint x="970" y="401.5" as="sourcePoint" />
            <mxPoint x="860" y="401.5" as="targetPoint" />
          </mxGeometry>
        </mxCell>
        <mxCell id="41I4AsRI8d2fky_zqglW-35" value="" style="endArrow=blockThin;html=1;fontSize=16;endFill=1;" parent="1" edge="1">
          <mxGeometry width="50" height="50" relative="1" as="geometry">
            <mxPoint x="861" y="450" as="sourcePoint" />
            <mxPoint x="971" y="450" as="targetPoint" />
          </mxGeometry>
        </mxCell>
        <mxCell id="41I4AsRI8d2fky_zqglW-36" value="tlast" style="text;html=1;strokeColor=none;fillColor=none;align=center;verticalAlign=middle;whiteSpace=wrap;rounded=0;fontSize=16;" parent="1" vertex="1">
          <mxGeometry x="860" y="430" width="110" height="20" as="geometry" />
        </mxCell>
        <mxCell id="41I4AsRI8d2fky_zqglW-37" value="tready" style="text;html=1;strokeColor=none;fillColor=none;align=center;verticalAlign=middle;whiteSpace=wrap;rounded=0;fontSize=16;" parent="1" vertex="1">
          <mxGeometry x="860" y="380" width="110" height="20" as="geometry" />
        </mxCell>
        <mxCell id="41I4AsRI8d2fky_zqglW-38" value="tvalid" style="text;html=1;strokeColor=none;fillColor=none;align=center;verticalAlign=middle;whiteSpace=wrap;rounded=0;fontSize=16;" parent="1" vertex="1">
          <mxGeometry x="860" y="334.5" width="110" height="20" as="geometry" />
        </mxCell>
        <mxCell id="41I4AsRI8d2fky_zqglW-39" value="&lt;b&gt;&lt;font style=&quot;font-size: 20px&quot;&gt;Converter&lt;/font&gt;&lt;/b&gt;" style="text;html=1;strokeColor=none;fillColor=none;align=center;verticalAlign=middle;whiteSpace=wrap;rounded=0;fontSize=16;rotation=-90;" parent="1" vertex="1">
          <mxGeometry x="717.03" y="365.8499999999999" width="195.94" height="20" as="geometry" />
        </mxCell>
        <mxCell id="41I4AsRI8d2fky_zqglW-40" value="" style="rounded=0;whiteSpace=wrap;html=1;fontSize=14;fillColor=#f5f5f5;strokeColor=#666666;fontColor=#333333;" parent="1" vertex="1">
          <mxGeometry x="1178" y="274" width="90" height="200" as="geometry" />
        </mxCell>
        <mxCell id="41I4AsRI8d2fky_zqglW-41" value="" style="endArrow=blockThin;html=1;fontSize=16;endFill=1;" parent="1" edge="1">
          <mxGeometry width="50" height="50" relative="1" as="geometry">
            <mxPoint x="1068" y="354" as="sourcePoint" />
            <mxPoint x="1178" y="354" as="targetPoint" />
          </mxGeometry>
        </mxCell>
        <mxCell id="41I4AsRI8d2fky_zqglW-42" value="" style="endArrow=blockThin;html=1;fontSize=16;endFill=1;" parent="1" edge="1">
          <mxGeometry width="50" height="50" relative="1" as="geometry">
            <mxPoint x="1178" y="399.5" as="sourcePoint" />
            <mxPoint x="1068" y="399.5" as="targetPoint" />
          </mxGeometry>
        </mxCell>
        <mxCell id="41I4AsRI8d2fky_zqglW-43" value="" style="endArrow=blockThin;html=1;fontSize=16;endFill=1;" parent="1" edge="1">
          <mxGeometry width="50" height="50" relative="1" as="geometry">
            <mxPoint x="1068" y="448" as="sourcePoint" />
            <mxPoint x="1178" y="448" as="targetPoint" />
          </mxGeometry>
        </mxCell>
        <mxCell id="41I4AsRI8d2fky_zqglW-44" value="" style="endArrow=blockThin;html=1;fontSize=16;fontStyle=1;strokeWidth=3;endSize=0;startSize=0;endFill=1;" parent="1" edge="1">
          <mxGeometry width="50" height="50" relative="1" as="geometry">
            <mxPoint x="1068" y="308" as="sourcePoint" />
            <mxPoint x="1178" y="308" as="targetPoint" />
          </mxGeometry>
        </mxCell>
        <mxCell id="41I4AsRI8d2fky_zqglW-45" value="tvalid" style="text;html=1;strokeColor=none;fillColor=none;align=center;verticalAlign=middle;whiteSpace=wrap;rounded=0;fontSize=16;" parent="1" vertex="1">
          <mxGeometry x="1068" y="332.5" width="110" height="20" as="geometry" />
        </mxCell>
        <mxCell id="41I4AsRI8d2fky_zqglW-46" value="data (256 bit)" style="text;html=1;strokeColor=none;fillColor=none;align=center;verticalAlign=middle;whiteSpace=wrap;rounded=0;fontSize=16;" parent="1" vertex="1">
          <mxGeometry x="1068" y="287" width="110" height="20" as="geometry" />
        </mxCell>
        <mxCell id="41I4AsRI8d2fky_zqglW-47" value="tready" style="text;html=1;strokeColor=none;fillColor=none;align=center;verticalAlign=middle;whiteSpace=wrap;rounded=0;fontSize=16;" parent="1" vertex="1">
          <mxGeometry x="1068" y="378" width="110" height="20" as="geometry" />
        </mxCell>
        <mxCell id="41I4AsRI8d2fky_zqglW-48" value="tlast" style="text;html=1;strokeColor=none;fillColor=none;align=center;verticalAlign=middle;whiteSpace=wrap;rounded=0;fontSize=16;" parent="1" vertex="1">
          <mxGeometry x="1068" y="428" width="110" height="20" as="geometry" />
        </mxCell>
        <mxCell id="41I4AsRI8d2fky_zqglW-49" value="data (256 bit)" style="text;html=1;strokeColor=none;fillColor=none;align=center;verticalAlign=middle;whiteSpace=wrap;rounded=0;fontSize=16;" parent="1" vertex="1">
          <mxGeometry x="1268" y="287" width="110" height="20" as="geometry" />
        </mxCell>
        <mxCell id="41I4AsRI8d2fky_zqglW-50" value="" style="endArrow=blockThin;html=1;fontSize=16;fontStyle=1;strokeWidth=3;endSize=0;startSize=0;endFill=1;" parent="1" edge="1">
          <mxGeometry width="50" height="50" relative="1" as="geometry">
            <mxPoint x="1268" y="308" as="sourcePoint" />
            <mxPoint x="1378" y="308" as="targetPoint" />
          </mxGeometry>
        </mxCell>
        <mxCell id="41I4AsRI8d2fky_zqglW-51" value="" style="endArrow=blockThin;html=1;fontSize=16;endFill=1;" parent="1" edge="1">
          <mxGeometry width="50" height="50" relative="1" as="geometry">
            <mxPoint x="1268" y="354" as="sourcePoint" />
            <mxPoint x="1378" y="354" as="targetPoint" />
          </mxGeometry>
        </mxCell>
        <mxCell id="41I4AsRI8d2fky_zqglW-52" value="" style="endArrow=blockThin;html=1;fontSize=16;endFill=1;" parent="1" edge="1">
          <mxGeometry width="50" height="50" relative="1" as="geometry">
            <mxPoint x="1378" y="399.5" as="sourcePoint" />
            <mxPoint x="1268" y="399.5" as="targetPoint" />
          </mxGeometry>
        </mxCell>
        <mxCell id="41I4AsRI8d2fky_zqglW-53" value="" style="endArrow=blockThin;html=1;fontSize=16;endFill=1;" parent="1" edge="1">
          <mxGeometry width="50" height="50" relative="1" as="geometry">
            <mxPoint x="1269" y="448" as="sourcePoint" />
            <mxPoint x="1379" y="448" as="targetPoint" />
          </mxGeometry>
        </mxCell>
        <mxCell id="41I4AsRI8d2fky_zqglW-54" value="tlast" style="text;html=1;strokeColor=none;fillColor=none;align=center;verticalAlign=middle;whiteSpace=wrap;rounded=0;fontSize=16;" parent="1" vertex="1">
          <mxGeometry x="1268" y="428" width="110" height="20" as="geometry" />
        </mxCell>
        <mxCell id="41I4AsRI8d2fky_zqglW-55" value="tready" style="text;html=1;strokeColor=none;fillColor=none;align=center;verticalAlign=middle;whiteSpace=wrap;rounded=0;fontSize=16;" parent="1" vertex="1">
          <mxGeometry x="1268" y="378" width="110" height="20" as="geometry" />
        </mxCell>
        <mxCell id="41I4AsRI8d2fky_zqglW-56" value="tvalid" style="text;html=1;strokeColor=none;fillColor=none;align=center;verticalAlign=middle;whiteSpace=wrap;rounded=0;fontSize=16;" parent="1" vertex="1">
          <mxGeometry x="1268" y="332.5" width="110" height="20" as="geometry" />
        </mxCell>
        <mxCell id="41I4AsRI8d2fky_zqglW-57" value="&lt;b&gt;&lt;font style=&quot;font-size: 20px&quot;&gt;Ring buffer&lt;br&gt;&lt;/font&gt;&lt;/b&gt;" style="text;html=1;strokeColor=none;fillColor=none;align=center;verticalAlign=middle;whiteSpace=wrap;rounded=0;fontSize=16;rotation=-90;" parent="1" vertex="1">
          <mxGeometry x="1125.03" y="363.8499999999999" width="195.94" height="20" as="geometry" />
        </mxCell>
        <mxCell id="41I4AsRI8d2fky_zqglW-58" value="" style="rounded=0;whiteSpace=wrap;html=1;fontSize=14;fillColor=#f5f5f5;strokeColor=#666666;fontColor=#333333;" parent="1" vertex="1">
          <mxGeometry x="1572" y="276" width="90" height="200" as="geometry" />
        </mxCell>
        <mxCell id="41I4AsRI8d2fky_zqglW-59" value="256 to 64" style="text;html=1;strokeColor=none;fillColor=none;align=center;verticalAlign=middle;whiteSpace=wrap;rounded=0;fontSize=16;fontStyle=1" parent="1" vertex="1">
          <mxGeometry x="1572" y="250" width="90" height="20" as="geometry" />
        </mxCell>
        <mxCell id="41I4AsRI8d2fky_zqglW-60" value="" style="endArrow=blockThin;html=1;fontSize=16;endFill=1;" parent="1" edge="1">
          <mxGeometry width="50" height="50" relative="1" as="geometry">
            <mxPoint x="1462" y="356" as="sourcePoint" />
            <mxPoint x="1572" y="356" as="targetPoint" />
          </mxGeometry>
        </mxCell>
        <mxCell id="41I4AsRI8d2fky_zqglW-61" value="" style="endArrow=blockThin;html=1;fontSize=16;endFill=1;" parent="1" edge="1">
          <mxGeometry width="50" height="50" relative="1" as="geometry">
            <mxPoint x="1572" y="401.5" as="sourcePoint" />
            <mxPoint x="1462" y="401.5" as="targetPoint" />
          </mxGeometry>
        </mxCell>
        <mxCell id="41I4AsRI8d2fky_zqglW-62" value="" style="endArrow=blockThin;html=1;fontSize=16;endFill=1;" parent="1" edge="1">
          <mxGeometry width="50" height="50" relative="1" as="geometry">
            <mxPoint x="1462" y="450" as="sourcePoint" />
            <mxPoint x="1572" y="450" as="targetPoint" />
          </mxGeometry>
        </mxCell>
        <mxCell id="41I4AsRI8d2fky_zqglW-63" value="" style="endArrow=blockThin;html=1;fontSize=16;fontStyle=1;strokeWidth=3;endSize=0;startSize=0;endFill=1;" parent="1" edge="1">
          <mxGeometry width="50" height="50" relative="1" as="geometry">
            <mxPoint x="1462" y="310" as="sourcePoint" />
            <mxPoint x="1572" y="310" as="targetPoint" />
          </mxGeometry>
        </mxCell>
        <mxCell id="41I4AsRI8d2fky_zqglW-64" value="tvalid" style="text;html=1;strokeColor=none;fillColor=none;align=center;verticalAlign=middle;whiteSpace=wrap;rounded=0;fontSize=16;" parent="1" vertex="1">
          <mxGeometry x="1462" y="334.5" width="110" height="20" as="geometry" />
        </mxCell>
        <mxCell id="41I4AsRI8d2fky_zqglW-65" value="data (256 bit)" style="text;html=1;strokeColor=none;fillColor=none;align=center;verticalAlign=middle;whiteSpace=wrap;rounded=0;fontSize=16;" parent="1" vertex="1">
          <mxGeometry x="1462" y="289" width="110" height="20" as="geometry" />
        </mxCell>
        <mxCell id="41I4AsRI8d2fky_zqglW-66" value="tready" style="text;html=1;strokeColor=none;fillColor=none;align=center;verticalAlign=middle;whiteSpace=wrap;rounded=0;fontSize=16;" parent="1" vertex="1">
          <mxGeometry x="1462" y="380" width="110" height="20" as="geometry" />
        </mxCell>
        <mxCell id="41I4AsRI8d2fky_zqglW-67" value="tlast" style="text;html=1;strokeColor=none;fillColor=none;align=center;verticalAlign=middle;whiteSpace=wrap;rounded=0;fontSize=16;" parent="1" vertex="1">
          <mxGeometry x="1462" y="430" width="110" height="20" as="geometry" />
        </mxCell>
        <mxCell id="41I4AsRI8d2fky_zqglW-68" value="data (64 bit)" style="text;html=1;strokeColor=none;fillColor=none;align=center;verticalAlign=middle;whiteSpace=wrap;rounded=0;fontSize=16;" parent="1" vertex="1">
          <mxGeometry x="1662" y="289" width="110" height="20" as="geometry" />
        </mxCell>
        <mxCell id="41I4AsRI8d2fky_zqglW-69" value="" style="endArrow=blockThin;html=1;fontSize=16;fontStyle=1;strokeWidth=3;endSize=0;startSize=0;endFill=1;" parent="1" edge="1">
          <mxGeometry width="50" height="50" relative="1" as="geometry">
            <mxPoint x="1662" y="310" as="sourcePoint" />
            <mxPoint x="1772" y="310" as="targetPoint" />
          </mxGeometry>
        </mxCell>
        <mxCell id="41I4AsRI8d2fky_zqglW-70" value="" style="endArrow=blockThin;html=1;fontSize=16;endFill=1;" parent="1" edge="1">
          <mxGeometry width="50" height="50" relative="1" as="geometry">
            <mxPoint x="1662" y="356" as="sourcePoint" />
            <mxPoint x="1772" y="356" as="targetPoint" />
          </mxGeometry>
        </mxCell>
        <mxCell id="41I4AsRI8d2fky_zqglW-71" value="" style="endArrow=blockThin;html=1;fontSize=16;endFill=1;" parent="1" edge="1">
          <mxGeometry width="50" height="50" relative="1" as="geometry">
            <mxPoint x="1772" y="401.5" as="sourcePoint" />
            <mxPoint x="1662" y="401.5" as="targetPoint" />
          </mxGeometry>
        </mxCell>
        <mxCell id="41I4AsRI8d2fky_zqglW-72" value="" style="endArrow=blockThin;html=1;fontSize=16;endFill=1;" parent="1" edge="1">
          <mxGeometry width="50" height="50" relative="1" as="geometry">
            <mxPoint x="1663" y="450" as="sourcePoint" />
            <mxPoint x="1773" y="450" as="targetPoint" />
          </mxGeometry>
        </mxCell>
        <mxCell id="41I4AsRI8d2fky_zqglW-73" value="tlast" style="text;html=1;strokeColor=none;fillColor=none;align=center;verticalAlign=middle;whiteSpace=wrap;rounded=0;fontSize=16;" parent="1" vertex="1">
          <mxGeometry x="1662" y="430" width="110" height="20" as="geometry" />
        </mxCell>
        <mxCell id="41I4AsRI8d2fky_zqglW-74" value="tready" style="text;html=1;strokeColor=none;fillColor=none;align=center;verticalAlign=middle;whiteSpace=wrap;rounded=0;fontSize=16;" parent="1" vertex="1">
          <mxGeometry x="1662" y="380" width="110" height="20" as="geometry" />
        </mxCell>
        <mxCell id="41I4AsRI8d2fky_zqglW-75" value="tvalid" style="text;html=1;strokeColor=none;fillColor=none;align=center;verticalAlign=middle;whiteSpace=wrap;rounded=0;fontSize=16;" parent="1" vertex="1">
          <mxGeometry x="1662" y="334.5" width="110" height="20" as="geometry" />
        </mxCell>
        <mxCell id="41I4AsRI8d2fky_zqglW-76" value="&lt;b&gt;&lt;font style=&quot;font-size: 20px&quot;&gt;Converter&lt;/font&gt;&lt;/b&gt;" style="text;html=1;strokeColor=none;fillColor=none;align=center;verticalAlign=middle;whiteSpace=wrap;rounded=0;fontSize=16;rotation=-90;" parent="1" vertex="1">
          <mxGeometry x="1519.03" y="365.8499999999999" width="195.94" height="20" as="geometry" />
        </mxCell>
        <mxCell id="41I4AsRI8d2fky_zqglW-77" value="" style="endArrow=none;html=1;strokeWidth=3;fontSize=16;rounded=0;endFill=0;" parent="1" edge="1">
          <mxGeometry width="50" height="50" relative="1" as="geometry">
            <mxPoint x="21" y="1129" as="sourcePoint" />
            <mxPoint x="1061" y="1129" as="targetPoint" />
            <Array as="points">
              <mxPoint x="61" y="1129" />
              <mxPoint x="61" y="1089" />
              <mxPoint x="101" y="1089" />
              <mxPoint x="101" y="1129" />
              <mxPoint x="141" y="1129" />
              <mxPoint x="141" y="1089" />
              <mxPoint x="181" y="1089" />
              <mxPoint x="181" y="1129" />
              <mxPoint x="221" y="1129" />
              <mxPoint x="221" y="1089" />
              <mxPoint x="261" y="1089" />
              <mxPoint x="261" y="1129" />
              <mxPoint x="301" y="1129" />
              <mxPoint x="301" y="1089" />
              <mxPoint x="341" y="1089" />
              <mxPoint x="341" y="1129" />
              <mxPoint x="381" y="1129" />
              <mxPoint x="381" y="1089" />
              <mxPoint x="421" y="1089" />
              <mxPoint x="421" y="1129" />
              <mxPoint x="461" y="1129" />
              <mxPoint x="461" y="1089" />
              <mxPoint x="501" y="1089" />
              <mxPoint x="501" y="1129" />
              <mxPoint x="541" y="1129" />
              <mxPoint x="541" y="1089" />
              <mxPoint x="581" y="1089" />
              <mxPoint x="581" y="1129" />
              <mxPoint x="621" y="1129" />
              <mxPoint x="621" y="1089" />
              <mxPoint x="661" y="1089" />
              <mxPoint x="661" y="1129" />
              <mxPoint x="701" y="1129" />
              <mxPoint x="701" y="1089" />
              <mxPoint x="741" y="1089" />
              <mxPoint x="741" y="1129" />
              <mxPoint x="781" y="1129" />
              <mxPoint x="781" y="1089" />
              <mxPoint x="821" y="1089" />
              <mxPoint x="821" y="1129" />
              <mxPoint x="861" y="1129" />
              <mxPoint x="861" y="1089" />
              <mxPoint x="901" y="1089" />
              <mxPoint x="901" y="1129" />
            </Array>
          </mxGeometry>
        </mxCell>
        <mxCell id="41I4AsRI8d2fky_zqglW-78" value="" style="endArrow=none;html=1;strokeColor=#000000;strokeWidth=3;fontSize=16;rounded=0;" parent="1" edge="1">
          <mxGeometry width="50" height="50" relative="1" as="geometry">
            <mxPoint x="21" y="1209" as="sourcePoint" />
            <mxPoint x="1061" y="1209" as="targetPoint" />
            <Array as="points">
              <mxPoint x="141" y="1209" />
              <mxPoint x="141" y="1169" />
              <mxPoint x="781" y="1169" />
              <mxPoint x="781" y="1209" />
            </Array>
          </mxGeometry>
        </mxCell>
        <mxCell id="41I4AsRI8d2fky_zqglW-79" value="" style="endArrow=none;html=1;strokeColor=#000000;strokeWidth=3;fontSize=16;rounded=0;" parent="1" edge="1">
          <mxGeometry width="50" height="50" relative="1" as="geometry">
            <mxPoint x="21" y="1289" as="sourcePoint" />
            <mxPoint x="1061" y="1289" as="targetPoint" />
            <Array as="points">
              <mxPoint x="701" y="1289" />
              <mxPoint x="701" y="1249" />
              <mxPoint x="781" y="1249" />
              <mxPoint x="781" y="1289" />
            </Array>
          </mxGeometry>
        </mxCell>
        <mxCell id="41I4AsRI8d2fky_zqglW-80" value="" style="endArrow=none;html=1;strokeColor=#000000;strokeWidth=3;fontSize=16;rounded=0;" parent="1" edge="1">
          <mxGeometry width="50" height="50" relative="1" as="geometry">
            <mxPoint x="21" y="1329" as="sourcePoint" />
            <mxPoint x="1061" y="1369" as="targetPoint" />
            <Array as="points">
              <mxPoint x="141" y="1329" />
              <mxPoint x="151" y="1369" />
              <mxPoint x="221" y="1369" />
              <mxPoint x="231" y="1329" />
              <mxPoint x="301" y="1329" />
              <mxPoint x="311" y="1369" />
              <mxPoint x="381" y="1369" />
              <mxPoint x="391" y="1329" />
              <mxPoint x="461" y="1329" />
              <mxPoint x="471" y="1369" />
              <mxPoint x="541" y="1369" />
              <mxPoint x="551" y="1329" />
              <mxPoint x="621" y="1329" />
              <mxPoint x="631" y="1369" />
              <mxPoint x="701" y="1369" />
              <mxPoint x="711" y="1329" />
              <mxPoint x="781" y="1329" />
              <mxPoint x="791" y="1369" />
            </Array>
          </mxGeometry>
        </mxCell>
        <mxCell id="41I4AsRI8d2fky_zqglW-81" value="" style="endArrow=none;html=1;strokeColor=#000000;strokeWidth=3;fontSize=16;rounded=0;" parent="1" edge="1">
          <mxGeometry width="50" height="50" relative="1" as="geometry">
            <mxPoint x="21" y="1369" as="sourcePoint" />
            <mxPoint x="1061" y="1329" as="targetPoint" />
            <Array as="points">
              <mxPoint x="141" y="1369" />
              <mxPoint x="151" y="1329" />
              <mxPoint x="221" y="1329" />
              <mxPoint x="231" y="1369" />
              <mxPoint x="301" y="1369" />
              <mxPoint x="311" y="1329" />
              <mxPoint x="381" y="1329" />
              <mxPoint x="391" y="1369" />
              <mxPoint x="461" y="1369" />
              <mxPoint x="471" y="1329" />
              <mxPoint x="541" y="1329" />
              <mxPoint x="551" y="1369" />
              <mxPoint x="621" y="1369" />
              <mxPoint x="631" y="1329" />
              <mxPoint x="701" y="1329" />
              <mxPoint x="711" y="1369" />
              <mxPoint x="781" y="1369" />
              <mxPoint x="791" y="1329" />
            </Array>
          </mxGeometry>
        </mxCell>
        <mxCell id="41I4AsRI8d2fky_zqglW-82" value="" style="endArrow=blockThin;html=1;strokeColor=#b85450;strokeWidth=2;fontSize=16;fillColor=#f8cecc;endFill=1;" parent="1" edge="1">
          <mxGeometry width="50" height="50" relative="1" as="geometry">
            <mxPoint x="1044" y="209" as="sourcePoint" />
            <mxPoint x="1224" y="273" as="targetPoint" />
            <Array as="points">
              <mxPoint x="1224" y="209" />
            </Array>
          </mxGeometry>
        </mxCell>
        <mxCell id="41I4AsRI8d2fky_zqglW-83" value="trigger" style="text;html=1;strokeColor=none;fillColor=none;align=center;verticalAlign=middle;whiteSpace=wrap;rounded=0;fontSize=16;" parent="1" vertex="1">
          <mxGeometry x="1044" y="184" width="180" height="20" as="geometry" />
        </mxCell>
        <mxCell id="41I4AsRI8d2fky_zqglW-84" value="&lt;font style=&quot;font-size: 20px&quot;&gt;tvalid&lt;/font&gt;" style="text;html=1;strokeColor=none;fillColor=none;align=center;verticalAlign=middle;whiteSpace=wrap;rounded=0;fontSize=16;" parent="1" vertex="1">
          <mxGeometry x="901" y="1186" width="160" height="20" as="geometry" />
        </mxCell>
        <mxCell id="41I4AsRI8d2fky_zqglW-85" value="data (32 bit)" style="text;html=1;strokeColor=none;fillColor=none;align=center;verticalAlign=middle;whiteSpace=wrap;rounded=0;fontSize=20;" parent="1" vertex="1">
          <mxGeometry x="901" y="1339" width="150" height="20" as="geometry" />
        </mxCell>
        <mxCell id="41I4AsRI8d2fky_zqglW-86" value="&lt;font style=&quot;font-size: 20px&quot;&gt;tlast&lt;/font&gt;" style="text;html=1;strokeColor=none;fillColor=none;align=center;verticalAlign=middle;whiteSpace=wrap;rounded=0;fontSize=16;" parent="1" vertex="1">
          <mxGeometry x="901" y="1266" width="160" height="20" as="geometry" />
        </mxCell>
        <mxCell id="41I4AsRI8d2fky_zqglW-87" value="&lt;font style=&quot;font-size: 20px&quot;&gt;clk&lt;/font&gt;" style="text;html=1;strokeColor=none;fillColor=none;align=center;verticalAlign=middle;whiteSpace=wrap;rounded=0;fontSize=16;" parent="1" vertex="1">
          <mxGeometry x="901" y="1106" width="160" height="20" as="geometry" />
        </mxCell>
        <mxCell id="41I4AsRI8d2fky_zqglW-88" value="" style="rounded=0;whiteSpace=wrap;html=1;fontSize=14;fillColor=#f5f5f5;strokeColor=#666666;fontColor=#333333;" parent="1" vertex="1">
          <mxGeometry x="1966" y="276" width="90" height="200" as="geometry" />
        </mxCell>
        <mxCell id="41I4AsRI8d2fky_zqglW-89" value="" style="endArrow=blockThin;html=1;fontSize=16;endFill=1;" parent="1" edge="1">
          <mxGeometry width="50" height="50" relative="1" as="geometry">
            <mxPoint x="1856" y="356" as="sourcePoint" />
            <mxPoint x="1966" y="356" as="targetPoint" />
          </mxGeometry>
        </mxCell>
        <mxCell id="41I4AsRI8d2fky_zqglW-90" value="" style="endArrow=blockThin;html=1;fontSize=16;endFill=1;" parent="1" edge="1">
          <mxGeometry width="50" height="50" relative="1" as="geometry">
            <mxPoint x="1966" y="401.5" as="sourcePoint" />
            <mxPoint x="1856" y="401.5" as="targetPoint" />
          </mxGeometry>
        </mxCell>
        <mxCell id="41I4AsRI8d2fky_zqglW-91" value="" style="endArrow=blockThin;html=1;fontSize=16;endFill=1;" parent="1" edge="1">
          <mxGeometry width="50" height="50" relative="1" as="geometry">
            <mxPoint x="1856" y="450" as="sourcePoint" />
            <mxPoint x="1966" y="450" as="targetPoint" />
          </mxGeometry>
        </mxCell>
        <mxCell id="41I4AsRI8d2fky_zqglW-92" value="" style="endArrow=blockThin;html=1;fontSize=16;fontStyle=1;strokeWidth=3;endSize=0;startSize=0;endFill=1;" parent="1" edge="1">
          <mxGeometry width="50" height="50" relative="1" as="geometry">
            <mxPoint x="1856" y="310" as="sourcePoint" />
            <mxPoint x="1966" y="310" as="targetPoint" />
          </mxGeometry>
        </mxCell>
        <mxCell id="41I4AsRI8d2fky_zqglW-93" value="tvalid" style="text;html=1;strokeColor=none;fillColor=none;align=center;verticalAlign=middle;whiteSpace=wrap;rounded=0;fontSize=16;" parent="1" vertex="1">
          <mxGeometry x="1856" y="334.5" width="110" height="20" as="geometry" />
        </mxCell>
        <mxCell id="41I4AsRI8d2fky_zqglW-94" value="data (64 bit)" style="text;html=1;strokeColor=none;fillColor=none;align=center;verticalAlign=middle;whiteSpace=wrap;rounded=0;fontSize=16;" parent="1" vertex="1">
          <mxGeometry x="1856" y="289" width="110" height="20" as="geometry" />
        </mxCell>
        <mxCell id="41I4AsRI8d2fky_zqglW-95" value="tready" style="text;html=1;strokeColor=none;fillColor=none;align=center;verticalAlign=middle;whiteSpace=wrap;rounded=0;fontSize=16;" parent="1" vertex="1">
          <mxGeometry x="1856" y="380" width="110" height="20" as="geometry" />
        </mxCell>
        <mxCell id="41I4AsRI8d2fky_zqglW-96" value="tlast" style="text;html=1;strokeColor=none;fillColor=none;align=center;verticalAlign=middle;whiteSpace=wrap;rounded=0;fontSize=16;" parent="1" vertex="1">
          <mxGeometry x="1856" y="430" width="110" height="20" as="geometry" />
        </mxCell>
        <mxCell id="41I4AsRI8d2fky_zqglW-97" value="&lt;b&gt;&lt;font style=&quot;font-size: 20px&quot;&gt;DMA PL&lt;br&gt;&lt;/font&gt;&lt;/b&gt;" style="text;html=1;strokeColor=none;fillColor=none;align=center;verticalAlign=middle;whiteSpace=wrap;rounded=0;fontSize=16;rotation=-90;" parent="1" vertex="1">
          <mxGeometry x="1913.0299999999997" y="365.8499999999999" width="195.94" height="20" as="geometry" />
        </mxCell>
        <mxCell id="41I4AsRI8d2fky_zqglW-98" value="data (32 bit)" style="text;html=1;align=center;verticalAlign=middle;whiteSpace=wrap;rounded=0;fontSize=16;" parent="1" vertex="1">
          <mxGeometry x="470" y="289" width="110" height="20" as="geometry" />
        </mxCell>
        <mxCell id="41I4AsRI8d2fky_zqglW-99" value="" style="endArrow=blockThin;html=1;fontSize=16;fontStyle=1;strokeWidth=3;endSize=0;startSize=0;fillColor=#f8cecc;strokeColor=#b85450;endFill=1;" parent="1" edge="1">
          <mxGeometry width="50" height="50" relative="1" as="geometry">
            <mxPoint x="470" y="310" as="sourcePoint" />
            <mxPoint x="580" y="310" as="targetPoint" />
          </mxGeometry>
        </mxCell>
        <mxCell id="41I4AsRI8d2fky_zqglW-100" value="" style="endArrow=blockThin;html=1;fontSize=16;fillColor=#f8cecc;strokeColor=#b85450;endFill=1;" parent="1" edge="1">
          <mxGeometry width="50" height="50" relative="1" as="geometry">
            <mxPoint x="470" y="356" as="sourcePoint" />
            <mxPoint x="580" y="356" as="targetPoint" />
          </mxGeometry>
        </mxCell>
        <mxCell id="41I4AsRI8d2fky_zqglW-101" value="" style="endArrow=blockThin;html=1;fontSize=16;fillColor=#f8cecc;strokeColor=#b85450;endFill=1;" parent="1" edge="1">
          <mxGeometry width="50" height="50" relative="1" as="geometry">
            <mxPoint x="580" y="401.5" as="sourcePoint" />
            <mxPoint x="470" y="401.5" as="targetPoint" />
          </mxGeometry>
        </mxCell>
        <mxCell id="41I4AsRI8d2fky_zqglW-102" value="" style="endArrow=blockThin;html=1;fontSize=16;fillColor=#f8cecc;strokeColor=#b85450;endFill=1;" parent="1" edge="1">
          <mxGeometry width="50" height="50" relative="1" as="geometry">
            <mxPoint x="471" y="450" as="sourcePoint" />
            <mxPoint x="581" y="450" as="targetPoint" />
          </mxGeometry>
        </mxCell>
        <mxCell id="41I4AsRI8d2fky_zqglW-103" value="tlast" style="text;html=1;align=center;verticalAlign=middle;whiteSpace=wrap;rounded=0;fontSize=16;" parent="1" vertex="1">
          <mxGeometry x="470" y="429" width="110" height="20" as="geometry" />
        </mxCell>
        <mxCell id="41I4AsRI8d2fky_zqglW-104" value="tready" style="text;html=1;align=center;verticalAlign=middle;whiteSpace=wrap;rounded=0;fontSize=16;" parent="1" vertex="1">
          <mxGeometry x="470" y="380" width="110" height="20" as="geometry" />
        </mxCell>
        <mxCell id="41I4AsRI8d2fky_zqglW-105" value="tvalid" style="text;html=1;align=center;verticalAlign=middle;whiteSpace=wrap;rounded=0;fontSize=16;" parent="1" vertex="1">
          <mxGeometry x="470" y="334.5" width="110" height="20" as="geometry" />
        </mxCell>
        <mxCell id="41I4AsRI8d2fky_zqglW-106" value="&lt;font size=&quot;1&quot;&gt;&lt;b style=&quot;font-size: 17px&quot;&gt;Процессор&lt;/b&gt;&lt;/font&gt;" style="rounded=1;whiteSpace=wrap;html=1;fillColor=#fff2cc;strokeColor=#d6b656;strokeWidth=2;" parent="1" vertex="1">
          <mxGeometry x="260" y="1525" width="160" height="80" as="geometry" />
        </mxCell>
        <mxCell id="41I4AsRI8d2fky_zqglW-107" value="&lt;font style=&quot;font-size: 17px&quot;&gt;&lt;b&gt;Память&lt;/b&gt;&lt;/font&gt;" style="rounded=1;whiteSpace=wrap;html=1;fillColor=#f8cecc;strokeColor=#b85450;strokeWidth=2;" parent="1" vertex="1">
          <mxGeometry x="620" y="1525" width="160" height="80" as="geometry" />
        </mxCell>
        <mxCell id="41I4AsRI8d2fky_zqglW-108" value="&lt;b style=&quot;font-size: 17px&quot;&gt;Периферийное устройство&lt;/b&gt;" style="rounded=1;whiteSpace=wrap;html=1;fillColor=#dae8fc;strokeColor=#6c8ebf;strokeWidth=2;" parent="1" vertex="1">
          <mxGeometry x="621" y="1807" width="160" height="79" as="geometry" />
        </mxCell>
        <mxCell id="41I4AsRI8d2fky_zqglW-109" value="&lt;font style=&quot;font-size: 17px&quot;&gt;&lt;b&gt;Контроллер DMA&lt;/b&gt;&lt;/font&gt;" style="ellipse;shape=cloud;whiteSpace=wrap;html=1;fillColor=#d5e8d4;strokeColor=#82b366;strokeWidth=2;" parent="1" vertex="1">
          <mxGeometry x="435" y="1655" width="145" height="110" as="geometry" />
        </mxCell>
        <mxCell id="41I4AsRI8d2fky_zqglW-110" value="" style="endArrow=classic;startArrow=classic;html=1;exitX=1;exitY=0.5;exitDx=0;exitDy=0;entryX=0;entryY=0.5;entryDx=0;entryDy=0;strokeWidth=2;fillColor=#fff2cc;strokeColor=#d6b656;" parent="1" source="41I4AsRI8d2fky_zqglW-106" target="41I4AsRI8d2fky_zqglW-107" edge="1">
          <mxGeometry width="50" height="50" relative="1" as="geometry">
            <mxPoint x="540" y="1475" as="sourcePoint" />
            <mxPoint x="590" y="1425" as="targetPoint" />
          </mxGeometry>
        </mxCell>
        <mxCell id="41I4AsRI8d2fky_zqglW-111" value="" style="endArrow=classic;startArrow=classic;html=1;strokeWidth=2;exitX=0.5;exitY=0;exitDx=0;exitDy=0;fillColor=#d5e8d4;strokeColor=#82b366;entryX=0.5;entryY=1;entryDx=0;entryDy=0;" parent="1" source="41I4AsRI8d2fky_zqglW-108" target="41I4AsRI8d2fky_zqglW-107" edge="1">
          <mxGeometry width="50" height="50" relative="1" as="geometry">
            <mxPoint x="424" y="1724.5" as="sourcePoint" />
            <mxPoint x="644" y="1725" as="targetPoint" />
          </mxGeometry>
        </mxCell>
        <mxCell id="41I4AsRI8d2fky_zqglW-112" value="" style="endArrow=none;dashed=1;html=1;dashPattern=1 3;strokeWidth=3;exitX=0.875;exitY=0.5;exitDx=0;exitDy=0;exitPerimeter=0;" parent="1" source="41I4AsRI8d2fky_zqglW-109" edge="1">
          <mxGeometry width="50" height="50" relative="1" as="geometry">
            <mxPoint x="569.9949999999999" y="1708.9499999999998" as="sourcePoint" />
            <mxPoint x="700" y="1710" as="targetPoint" />
          </mxGeometry>
        </mxCell>
        <mxCell id="41I4AsRI8d2fky_zqglW-113" value="" style="rounded=0;whiteSpace=wrap;html=1;" parent="1" vertex="1">
          <mxGeometry x="796" y="634.5" width="460" height="300" as="geometry" />
        </mxCell>
        <mxCell id="41I4AsRI8d2fky_zqglW-114" value="" style="endArrow=blockThin;html=1;fontSize=16;fontStyle=1;strokeWidth=3;endSize=0;startSize=0;endFill=1;" parent="1" edge="1">
          <mxGeometry width="50" height="50" relative="1" as="geometry">
            <mxPoint x="992" y="751" as="sourcePoint" />
            <mxPoint x="1062" y="751" as="targetPoint" />
          </mxGeometry>
        </mxCell>
        <mxCell id="41I4AsRI8d2fky_zqglW-115" value="s_axis" style="text;html=1;strokeColor=none;fillColor=none;align=center;verticalAlign=middle;whiteSpace=wrap;rounded=0;fontSize=16;" parent="1" vertex="1">
          <mxGeometry x="686" y="865" width="109" height="20" as="geometry" />
        </mxCell>
        <mxCell id="41I4AsRI8d2fky_zqglW-116" value="" style="endArrow=blockThin;html=1;fontSize=16;fontStyle=1;strokeWidth=3;endSize=0;startSize=0;fillColor=#f8cecc;strokeColor=#b85450;endFill=1;exitX=1.008;exitY=0.318;exitDx=0;exitDy=0;exitPerimeter=0;" parent="1" source="41I4AsRI8d2fky_zqglW-113" edge="1">
          <mxGeometry width="50" height="50" relative="1" as="geometry">
            <mxPoint x="1360" y="742" as="sourcePoint" />
            <mxPoint x="1400" y="695" as="targetPoint" />
            <Array as="points">
              <mxPoint x="1400" y="730" />
            </Array>
          </mxGeometry>
        </mxCell>
        <mxCell id="41I4AsRI8d2fky_zqglW-117" value="trigger" style="text;html=1;strokeColor=none;fillColor=none;align=center;verticalAlign=middle;whiteSpace=wrap;rounded=0;fontSize=16;" parent="1" vertex="1">
          <mxGeometry x="1184" y="709" width="69" height="20" as="geometry" />
        </mxCell>
        <mxCell id="41I4AsRI8d2fky_zqglW-118" value="" style="rounded=0;whiteSpace=wrap;html=1;" parent="1" vertex="1">
          <mxGeometry x="1063" y="650" width="120" height="269" as="geometry" />
        </mxCell>
        <mxCell id="41I4AsRI8d2fky_zqglW-119" value="&lt;b&gt;&lt;font style=&quot;font-size: 20px&quot;&gt;Trigger&lt;br&gt;&lt;/font&gt;&lt;/b&gt;" style="text;html=1;strokeColor=none;fillColor=none;align=center;verticalAlign=middle;whiteSpace=wrap;rounded=0;fontSize=16;rotation=-90;" parent="1" vertex="1">
          <mxGeometry x="993.26" y="774.5" width="259.48" height="20" as="geometry" />
        </mxCell>
        <mxCell id="41I4AsRI8d2fky_zqglW-120" value="" style="endArrow=blockThin;html=1;fontSize=16;endFill=1;" parent="1" edge="1">
          <mxGeometry width="50" height="50" relative="1" as="geometry">
            <mxPoint x="992" y="690" as="sourcePoint" />
            <mxPoint x="1063" y="690" as="targetPoint" />
          </mxGeometry>
        </mxCell>
        <mxCell id="41I4AsRI8d2fky_zqglW-121" value="clk" style="text;html=1;strokeColor=none;fillColor=none;align=center;verticalAlign=middle;whiteSpace=wrap;rounded=0;fontSize=16;" parent="1" vertex="1">
          <mxGeometry x="992" y="668" width="70" height="20" as="geometry" />
        </mxCell>
        <mxCell id="41I4AsRI8d2fky_zqglW-122" value="" style="endArrow=blockThin;html=1;fontSize=16;fontStyle=1;strokeWidth=3;endSize=0;startSize=0;endFill=1;" parent="1" edge="1">
          <mxGeometry width="50" height="50" relative="1" as="geometry">
            <mxPoint x="686" y="888.5799999999999" as="sourcePoint" />
            <mxPoint x="796" y="888.5799999999999" as="targetPoint" />
          </mxGeometry>
        </mxCell>
        <mxCell id="41I4AsRI8d2fky_zqglW-123" value="" style="endArrow=blockThin;html=1;fontSize=16;endFill=1;" parent="1" edge="1">
          <mxGeometry width="50" height="50" relative="1" as="geometry">
            <mxPoint x="992" y="880" as="sourcePoint" />
            <mxPoint x="1063" y="880" as="targetPoint" />
          </mxGeometry>
        </mxCell>
        <mxCell id="41I4AsRI8d2fky_zqglW-124" value="dv" style="text;html=1;strokeColor=none;fillColor=none;align=center;verticalAlign=middle;whiteSpace=wrap;rounded=0;fontSize=16;" parent="1" vertex="1">
          <mxGeometry x="992" y="858" width="70" height="20" as="geometry" />
        </mxCell>
        <mxCell id="41I4AsRI8d2fky_zqglW-125" value="data" style="text;html=1;strokeColor=none;fillColor=none;align=center;verticalAlign=middle;whiteSpace=wrap;rounded=0;fontSize=16;" parent="1" vertex="1">
          <mxGeometry x="992" y="728" width="70" height="20" as="geometry" />
        </mxCell>
        <mxCell id="41I4AsRI8d2fky_zqglW-126" value="&lt;b&gt;. . . . .&lt;/b&gt;" style="text;html=1;strokeColor=none;fillColor=none;align=center;verticalAlign=middle;whiteSpace=wrap;rounded=0;fontSize=16;rotation=270;" parent="1" vertex="1">
          <mxGeometry x="975.8900000000001" y="804.3699999999999" width="126.74" height="20" as="geometry" />
        </mxCell>
        <mxCell id="41I4AsRI8d2fky_zqglW-127" value="" style="endArrow=blockThin;html=1;fontSize=16;endFill=1;" parent="1" edge="1">
          <mxGeometry width="50" height="50" relative="1" as="geometry">
            <mxPoint x="1183" y="730" as="sourcePoint" />
            <mxPoint x="1254" y="730" as="targetPoint" />
          </mxGeometry>
        </mxCell>
        <mxCell id="41I4AsRI8d2fky_zqglW-128" value="" style="rounded=0;whiteSpace=wrap;html=1;" parent="1" vertex="1">
          <mxGeometry x="825" y="859" width="93" height="60" as="geometry" />
        </mxCell>
        <mxCell id="41I4AsRI8d2fky_zqglW-129" value="axis_fifo" style="text;html=1;strokeColor=none;fillColor=none;align=center;verticalAlign=middle;whiteSpace=wrap;rounded=0;fontSize=16;fontStyle=1" parent="1" vertex="1">
          <mxGeometry x="825" y="836" width="93" height="20" as="geometry" />
        </mxCell>
        <mxCell id="41I4AsRI8d2fky_zqglW-130" value="" style="rounded=0;whiteSpace=wrap;html=1;" parent="1" vertex="1">
          <mxGeometry x="825" y="675.5" width="93" height="60" as="geometry" />
        </mxCell>
        <mxCell id="41I4AsRI8d2fky_zqglW-131" value="AXI" style="text;html=1;strokeColor=none;fillColor=none;align=center;verticalAlign=middle;whiteSpace=wrap;rounded=0;fontSize=16;fontStyle=1" parent="1" vertex="1">
          <mxGeometry x="825" y="652" width="93" height="20" as="geometry" />
        </mxCell>
        <mxCell id="41I4AsRI8d2fky_zqglW-132" value="" style="endArrow=blockThin;html=1;strokeWidth=1;endFill=1;" parent="1" edge="1">
          <mxGeometry width="50" height="50" relative="1" as="geometry">
            <mxPoint x="800" y="811" as="sourcePoint" />
            <mxPoint x="987" y="692" as="targetPoint" />
            <Array as="points" />
          </mxGeometry>
        </mxCell>
        <mxCell id="41I4AsRI8d2fky_zqglW-133" value="" style="endArrow=blockThin;html=1;strokeWidth=1;endFill=1;" parent="1" edge="1">
          <mxGeometry width="50" height="50" relative="1" as="geometry">
            <mxPoint x="801" y="888" as="sourcePoint" />
            <mxPoint x="985" y="880" as="targetPoint" />
            <Array as="points" />
          </mxGeometry>
        </mxCell>
        <mxCell id="41I4AsRI8d2fky_zqglW-134" value="" style="endArrow=blockThin;html=1;strokeWidth=1;endFill=1;" parent="1" edge="1">
          <mxGeometry width="50" height="50" relative="1" as="geometry">
            <mxPoint x="801" y="885" as="sourcePoint" />
            <mxPoint x="982" y="752" as="targetPoint" />
            <Array as="points" />
          </mxGeometry>
        </mxCell>
        <mxCell id="41I4AsRI8d2fky_zqglW-135" value="" style="endArrow=blockThin;html=1;fontSize=16;endFill=1;" parent="1" edge="1">
          <mxGeometry width="50" height="50" relative="1" as="geometry">
            <mxPoint x="685" y="849" as="sourcePoint" />
            <mxPoint x="795" y="849" as="targetPoint" />
          </mxGeometry>
        </mxCell>
        <mxCell id="41I4AsRI8d2fky_zqglW-136" value="s_axis_resetn" style="text;html=1;strokeColor=none;fillColor=none;align=center;verticalAlign=middle;whiteSpace=wrap;rounded=0;fontSize=16;" parent="1" vertex="1">
          <mxGeometry x="685" y="826" width="109" height="20" as="geometry" />
        </mxCell>
        <mxCell id="41I4AsRI8d2fky_zqglW-137" value="" style="endArrow=blockThin;html=1;fontSize=16;endFill=1;" parent="1" edge="1">
          <mxGeometry width="50" height="50" relative="1" as="geometry">
            <mxPoint x="686" y="811" as="sourcePoint" />
            <mxPoint x="796" y="811" as="targetPoint" />
          </mxGeometry>
        </mxCell>
        <mxCell id="41I4AsRI8d2fky_zqglW-138" value="s_axis_aclk" style="text;html=1;strokeColor=none;fillColor=none;align=center;verticalAlign=middle;whiteSpace=wrap;rounded=0;fontSize=16;" parent="1" vertex="1">
          <mxGeometry x="686" y="789" width="109" height="20" as="geometry" />
        </mxCell>
      </root>
    </mxGraphModel>
  </diagram>
  <diagram id="XVL9JW6J_5_tTmpKDG6c" name="Page-2">
    <mxGraphModel dx="3556" dy="945" grid="1" gridSize="10" guides="1" tooltips="1" connect="1" arrows="1" fold="1" page="1" pageScale="1" pageWidth="1654" pageHeight="1169" math="0" shadow="0">
      <root>
        <mxCell id="kkrpxTmFOdPYkM64JED3-0" />
        <mxCell id="kkrpxTmFOdPYkM64JED3-1" parent="kkrpxTmFOdPYkM64JED3-0" />
        <mxCell id="kkrpxTmFOdPYkM64JED3-4" value="" style="rounded=0;whiteSpace=wrap;html=1;fontSize=14;" parent="kkrpxTmFOdPYkM64JED3-1" vertex="1">
          <mxGeometry x="480" y="200" width="250" height="240" as="geometry" />
        </mxCell>
        <mxCell id="kkrpxTmFOdPYkM64JED3-5" value="AXI Data Provider" style="text;html=1;strokeColor=none;fillColor=none;align=center;verticalAlign=middle;whiteSpace=wrap;rounded=0;fontSize=16;fontStyle=1" parent="kkrpxTmFOdPYkM64JED3-1" vertex="1">
          <mxGeometry x="480" y="179" width="250" height="20" as="geometry" />
        </mxCell>
        <mxCell id="kkrpxTmFOdPYkM64JED3-6" value="" style="endArrow=blockThin;html=1;fontSize=16;strokeWidth=2;endFill=1;" parent="kkrpxTmFOdPYkM64JED3-1" edge="1">
          <mxGeometry width="50" height="50" relative="1" as="geometry">
            <mxPoint x="370" y="321" as="sourcePoint" />
            <mxPoint x="480" y="321" as="targetPoint" />
          </mxGeometry>
        </mxCell>
        <mxCell id="kkrpxTmFOdPYkM64JED3-8" value="" style="endArrow=blockThin;html=1;fontSize=16;strokeWidth=2;endFill=1;" parent="kkrpxTmFOdPYkM64JED3-1" edge="1">
          <mxGeometry width="50" height="50" relative="1" as="geometry">
            <mxPoint x="370" y="399" as="sourcePoint" />
            <mxPoint x="480" y="399" as="targetPoint" />
          </mxGeometry>
        </mxCell>
        <mxCell id="kkrpxTmFOdPYkM64JED3-9" value="" style="endArrow=blockThin;html=1;fontSize=16;fontStyle=1;strokeWidth=4;endSize=0;startSize=0;endFill=1;" parent="kkrpxTmFOdPYkM64JED3-1" edge="1">
          <mxGeometry width="50" height="50" relative="1" as="geometry">
            <mxPoint x="370" y="242" as="sourcePoint" />
            <mxPoint x="480" y="242" as="targetPoint" />
          </mxGeometry>
        </mxCell>
        <mxCell id="kkrpxTmFOdPYkM64JED3-10" value="frame" style="text;html=1;strokeColor=none;fillColor=none;align=center;verticalAlign=middle;whiteSpace=wrap;rounded=0;fontSize=16;" parent="kkrpxTmFOdPYkM64JED3-1" vertex="1">
          <mxGeometry x="370" y="299" width="110" height="20" as="geometry" />
        </mxCell>
        <mxCell id="kkrpxTmFOdPYkM64JED3-11" value="data" style="text;html=1;strokeColor=none;fillColor=none;align=center;verticalAlign=middle;whiteSpace=wrap;rounded=0;fontSize=16;" parent="kkrpxTmFOdPYkM64JED3-1" vertex="1">
          <mxGeometry x="370" y="219" width="110" height="20" as="geometry" />
        </mxCell>
        <mxCell id="kkrpxTmFOdPYkM64JED3-13" value="clk_100 MHz" style="text;html=1;strokeColor=none;fillColor=none;align=center;verticalAlign=middle;whiteSpace=wrap;rounded=0;fontSize=16;" parent="kkrpxTmFOdPYkM64JED3-1" vertex="1">
          <mxGeometry x="370" y="377" width="110" height="20" as="geometry" />
        </mxCell>
        <mxCell id="kkrpxTmFOdPYkM64JED3-14" value="M_AXIS" style="text;html=1;strokeColor=none;fillColor=none;align=center;verticalAlign=middle;whiteSpace=wrap;rounded=0;fontSize=16;" parent="kkrpxTmFOdPYkM64JED3-1" vertex="1">
          <mxGeometry x="730" y="259" width="110" height="20" as="geometry" />
        </mxCell>
        <mxCell id="kkrpxTmFOdPYkM64JED3-15" value="" style="endArrow=blockThin;html=1;fontSize=16;fontStyle=1;strokeWidth=4;endSize=0;startSize=0;endFill=1;" parent="kkrpxTmFOdPYkM64JED3-1" edge="1">
          <mxGeometry width="50" height="50" relative="1" as="geometry">
            <mxPoint x="730" y="320" as="sourcePoint" />
            <mxPoint x="840" y="320" as="targetPoint" />
          </mxGeometry>
        </mxCell>
        <mxCell id="2kLmYHx7jo_k0oocGwNM-1" value="..." style="rounded=0;whiteSpace=wrap;html=1;strokeWidth=3;" parent="kkrpxTmFOdPYkM64JED3-1" vertex="1">
          <mxGeometry x="280" y="220" width="60" height="40" as="geometry" />
        </mxCell>
        <mxCell id="2kLmYHx7jo_k0oocGwNM-2" value="ch 0" style="rounded=0;whiteSpace=wrap;html=1;strokeWidth=3;" parent="kkrpxTmFOdPYkM64JED3-1" vertex="1">
          <mxGeometry x="200" y="220" width="60" height="40" as="geometry" />
        </mxCell>
        <mxCell id="2kLmYHx7jo_k0oocGwNM-3" value="ch 1" style="rounded=0;whiteSpace=wrap;html=1;strokeWidth=3;" parent="kkrpxTmFOdPYkM64JED3-1" vertex="1">
          <mxGeometry x="120" y="220" width="60" height="40" as="geometry" />
        </mxCell>
        <mxCell id="2kLmYHx7jo_k0oocGwNM-4" value="ch 2" style="rounded=0;whiteSpace=wrap;html=1;strokeWidth=3;" parent="kkrpxTmFOdPYkM64JED3-1" vertex="1">
          <mxGeometry x="40" y="220.5" width="60" height="40" as="geometry" />
        </mxCell>
        <mxCell id="2kLmYHx7jo_k0oocGwNM-7" value="..." style="rounded=0;whiteSpace=wrap;html=1;strokeWidth=3;" parent="kkrpxTmFOdPYkM64JED3-1" vertex="1">
          <mxGeometry x="920" y="190" width="60" height="40" as="geometry" />
        </mxCell>
        <mxCell id="2kLmYHx7jo_k0oocGwNM-8" value="..." style="rounded=0;whiteSpace=wrap;html=1;strokeWidth=3;" parent="kkrpxTmFOdPYkM64JED3-1" vertex="1">
          <mxGeometry x="920" y="231" width="60" height="40" as="geometry" />
        </mxCell>
        <mxCell id="2kLmYHx7jo_k0oocGwNM-15" value="0" style="text;html=1;strokeColor=none;fillColor=none;align=center;verticalAlign=middle;whiteSpace=wrap;rounded=0;" parent="kkrpxTmFOdPYkM64JED3-1" vertex="1">
          <mxGeometry x="897" y="257" width="17" height="20" as="geometry" />
        </mxCell>
        <mxCell id="2kLmYHx7jo_k0oocGwNM-16" value="32" style="text;html=1;strokeColor=none;fillColor=none;align=center;verticalAlign=middle;whiteSpace=wrap;rounded=0;" parent="kkrpxTmFOdPYkM64JED3-1" vertex="1">
          <mxGeometry x="893" y="179" width="17" height="20" as="geometry" />
        </mxCell>
        <mxCell id="2kLmYHx7jo_k0oocGwNM-17" value="0" style="text;html=1;strokeColor=none;fillColor=none;align=center;verticalAlign=middle;whiteSpace=wrap;rounded=0;" parent="kkrpxTmFOdPYkM64JED3-1" vertex="1">
          <mxGeometry x="-140" y="247" width="17" height="20" as="geometry" />
        </mxCell>
        <mxCell id="2kLmYHx7jo_k0oocGwNM-18" value="9" style="text;html=1;strokeColor=none;fillColor=none;align=center;verticalAlign=middle;whiteSpace=wrap;rounded=0;" parent="kkrpxTmFOdPYkM64JED3-1" vertex="1">
          <mxGeometry x="-140" y="209" width="17" height="20" as="geometry" />
        </mxCell>
        <mxCell id="2kLmYHx7jo_k0oocGwNM-21" value="..." style="rounded=0;whiteSpace=wrap;html=1;strokeWidth=3;" parent="kkrpxTmFOdPYkM64JED3-1" vertex="1">
          <mxGeometry x="-121" y="220.5" width="60" height="40" as="geometry" />
        </mxCell>
        <mxCell id="CAugLl1VvIbiFS4wp2D5-0" value="" style="endArrow=none;html=1;strokeColor=#000000;strokeWidth=3;fontSize=16;rounded=0;" parent="kkrpxTmFOdPYkM64JED3-1" edge="1">
          <mxGeometry width="50" height="50" relative="1" as="geometry">
            <mxPoint x="-160" y="321" as="sourcePoint" />
            <mxPoint x="360" y="321" as="targetPoint" />
            <Array as="points">
              <mxPoint x="-40" y="321" />
              <mxPoint x="-40" y="281" />
              <mxPoint x="280" y="281" />
              <mxPoint x="280" y="321" />
            </Array>
          </mxGeometry>
        </mxCell>
        <mxCell id="6lMKeit9cAsejeU32TCq-1" value="" style="endArrow=none;html=1;strokeWidth=3;fontSize=16;rounded=0;endFill=0;" parent="kkrpxTmFOdPYkM64JED3-1" edge="1">
          <mxGeometry width="50" height="50" relative="1" as="geometry">
            <mxPoint x="-161" y="399" as="sourcePoint" />
            <mxPoint x="359" y="399" as="targetPoint" />
            <Array as="points">
              <mxPoint x="-121" y="399" />
              <mxPoint x="-121" y="359" />
              <mxPoint x="-81" y="359" />
              <mxPoint x="-81" y="399" />
              <mxPoint x="-41" y="399" />
              <mxPoint x="-41" y="359" />
              <mxPoint x="-1" y="359" />
              <mxPoint x="-1" y="399" />
              <mxPoint x="39" y="399" />
              <mxPoint x="39" y="359" />
              <mxPoint x="79" y="359" />
              <mxPoint x="79" y="399" />
              <mxPoint x="119" y="399" />
              <mxPoint x="119" y="359" />
              <mxPoint x="159" y="359" />
              <mxPoint x="159" y="399" />
              <mxPoint x="199" y="399" />
              <mxPoint x="199" y="359" />
              <mxPoint x="239" y="359" />
              <mxPoint x="239" y="399" />
              <mxPoint x="279" y="399" />
              <mxPoint x="279" y="359" />
              <mxPoint x="319" y="359" />
              <mxPoint x="319" y="399" />
              <mxPoint x="359" y="399" />
            </Array>
          </mxGeometry>
        </mxCell>
        <mxCell id="6lMKeit9cAsejeU32TCq-2" value="ch 3" style="rounded=0;whiteSpace=wrap;html=1;strokeWidth=3;" parent="kkrpxTmFOdPYkM64JED3-1" vertex="1">
          <mxGeometry x="-40" y="220.5" width="60" height="40" as="geometry" />
        </mxCell>
        <mxCell id="6lMKeit9cAsejeU32TCq-8" value="" style="endArrow=none;html=1;strokeColor=#000000;strokeWidth=3;fontSize=16;rounded=0;" parent="kkrpxTmFOdPYkM64JED3-1" edge="1">
          <mxGeometry width="50" height="50" relative="1" as="geometry">
            <mxPoint x="880" y="329" as="sourcePoint" />
            <mxPoint x="1230" y="329" as="targetPoint" />
            <Array as="points">
              <mxPoint x="1000" y="329" />
              <mxPoint x="1000" y="289" />
              <mxPoint x="1160" y="289" />
              <mxPoint x="1160" y="329" />
            </Array>
          </mxGeometry>
        </mxCell>
        <mxCell id="6lMKeit9cAsejeU32TCq-9" value="" style="endArrow=none;html=1;strokeWidth=3;fontSize=16;rounded=0;endFill=0;" parent="kkrpxTmFOdPYkM64JED3-1" edge="1">
          <mxGeometry width="50" height="50" relative="1" as="geometry">
            <mxPoint x="880" y="430" as="sourcePoint" />
            <mxPoint x="1240" y="430" as="targetPoint" />
            <Array as="points">
              <mxPoint x="920" y="430" />
              <mxPoint x="920" y="390" />
              <mxPoint x="960" y="390" />
              <mxPoint x="960" y="430" />
              <mxPoint x="1000" y="430" />
              <mxPoint x="1000" y="390" />
              <mxPoint x="1040" y="390" />
              <mxPoint x="1040" y="430" />
              <mxPoint x="1080" y="430" />
              <mxPoint x="1080" y="390" />
              <mxPoint x="1120" y="390" />
              <mxPoint x="1120" y="430" />
              <mxPoint x="1160" y="430" />
              <mxPoint x="1160" y="390" />
              <mxPoint x="1200" y="390" />
              <mxPoint x="1200" y="430" />
              <mxPoint x="1240" y="430" />
            </Array>
          </mxGeometry>
        </mxCell>
        <mxCell id="6lMKeit9cAsejeU32TCq-10" value="ch 1" style="rounded=0;whiteSpace=wrap;html=1;strokeWidth=3;" parent="kkrpxTmFOdPYkM64JED3-1" vertex="1">
          <mxGeometry x="1000" y="190" width="60" height="40" as="geometry" />
        </mxCell>
        <mxCell id="6lMKeit9cAsejeU32TCq-11" value="ch 0" style="rounded=0;whiteSpace=wrap;html=1;strokeWidth=3;" parent="kkrpxTmFOdPYkM64JED3-1" vertex="1">
          <mxGeometry x="1000" y="231" width="60" height="40" as="geometry" />
        </mxCell>
        <mxCell id="6lMKeit9cAsejeU32TCq-12" value="ch 3" style="rounded=0;whiteSpace=wrap;html=1;strokeWidth=3;" parent="kkrpxTmFOdPYkM64JED3-1" vertex="1">
          <mxGeometry x="1080" y="190" width="60" height="40" as="geometry" />
        </mxCell>
        <mxCell id="6lMKeit9cAsejeU32TCq-13" value="ch 2" style="rounded=0;whiteSpace=wrap;html=1;strokeWidth=3;" parent="kkrpxTmFOdPYkM64JED3-1" vertex="1">
          <mxGeometry x="1080" y="231" width="60" height="40" as="geometry" />
        </mxCell>
        <mxCell id="6lMKeit9cAsejeU32TCq-14" value="..." style="rounded=0;whiteSpace=wrap;html=1;strokeWidth=3;" parent="kkrpxTmFOdPYkM64JED3-1" vertex="1">
          <mxGeometry x="1160" y="190" width="60" height="40" as="geometry" />
        </mxCell>
        <mxCell id="6lMKeit9cAsejeU32TCq-15" value="..." style="rounded=0;whiteSpace=wrap;html=1;strokeWidth=3;" parent="kkrpxTmFOdPYkM64JED3-1" vertex="1">
          <mxGeometry x="1160" y="231" width="60" height="40" as="geometry" />
        </mxCell>
      </root>
    </mxGraphModel>
  </diagram>
  <diagram id="Uzik4TTrniuiUaMCY0H9" name="Page-3">
    <mxGraphModel dx="1585" dy="788" grid="1" gridSize="10" guides="1" tooltips="1" connect="1" arrows="1" fold="1" page="1" pageScale="1" pageWidth="1654" pageHeight="1169" math="0" shadow="0">
      <root>
        <mxCell id="snZ278TH5wYI09KBHPFk-0" />
        <mxCell id="snZ278TH5wYI09KBHPFk-1" parent="snZ278TH5wYI09KBHPFk-0" />
        <mxCell id="snZ278TH5wYI09KBHPFk-2" value="" style="rounded=0;whiteSpace=wrap;html=1;strokeWidth=3;" vertex="1" parent="snZ278TH5wYI09KBHPFk-1">
          <mxGeometry x="200" y="120" width="320" height="320" as="geometry" />
        </mxCell>
        <mxCell id="snZ278TH5wYI09KBHPFk-6" value="" style="endArrow=none;html=1;strokeWidth=3;" edge="1" parent="snZ278TH5wYI09KBHPFk-1">
          <mxGeometry width="50" height="50" relative="1" as="geometry">
            <mxPoint x="280" y="440" as="sourcePoint" />
            <mxPoint x="280" y="120" as="targetPoint" />
          </mxGeometry>
        </mxCell>
        <mxCell id="snZ278TH5wYI09KBHPFk-9" value="" style="endArrow=none;html=1;strokeWidth=3;" edge="1" parent="snZ278TH5wYI09KBHPFk-1">
          <mxGeometry width="50" height="50" relative="1" as="geometry">
            <mxPoint x="200" y="200" as="sourcePoint" />
            <mxPoint x="520" y="200" as="targetPoint" />
          </mxGeometry>
        </mxCell>
        <mxCell id="snZ278TH5wYI09KBHPFk-10" value="" style="endArrow=none;html=1;strokeWidth=3;" edge="1" parent="snZ278TH5wYI09KBHPFk-1">
          <mxGeometry width="50" height="50" relative="1" as="geometry">
            <mxPoint x="201" y="279.9999999999999" as="sourcePoint" />
            <mxPoint x="521.0000000000002" y="279.9999999999999" as="targetPoint" />
          </mxGeometry>
        </mxCell>
        <mxCell id="snZ278TH5wYI09KBHPFk-11" value="" style="endArrow=none;html=1;strokeWidth=3;" edge="1" parent="snZ278TH5wYI09KBHPFk-1">
          <mxGeometry width="50" height="50" relative="1" as="geometry">
            <mxPoint x="201" y="359.9999999999999" as="sourcePoint" />
            <mxPoint x="521.0000000000002" y="359.9999999999999" as="targetPoint" />
          </mxGeometry>
        </mxCell>
        <mxCell id="snZ278TH5wYI09KBHPFk-12" value="" style="endArrow=none;html=1;strokeWidth=3;" edge="1" parent="snZ278TH5wYI09KBHPFk-1">
          <mxGeometry width="50" height="50" relative="1" as="geometry">
            <mxPoint x="360" y="440" as="sourcePoint" />
            <mxPoint x="360" y="120" as="targetPoint" />
          </mxGeometry>
        </mxCell>
        <mxCell id="snZ278TH5wYI09KBHPFk-14" value="" style="rounded=0;whiteSpace=wrap;html=1;fillColor=#008a00;strokeColor=#005700;fontColor=#ffffff;" vertex="1" parent="snZ278TH5wYI09KBHPFk-1">
          <mxGeometry x="160" y="100" width="400" height="10" as="geometry" />
        </mxCell>
        <mxCell id="snZ278TH5wYI09KBHPFk-15" value="" style="endArrow=none;html=1;fillColor=#f0a30a;strokeColor=#BD7000;strokeWidth=3;" edge="1" parent="snZ278TH5wYI09KBHPFk-1">
          <mxGeometry width="50" height="50" relative="1" as="geometry">
            <mxPoint x="240" y="100" as="sourcePoint" />
            <mxPoint x="240" y="40" as="targetPoint" />
          </mxGeometry>
        </mxCell>
        <mxCell id="snZ278TH5wYI09KBHPFk-16" value="" style="endArrow=none;html=1;fillColor=#f0a30a;strokeColor=#BD7000;strokeWidth=3;" edge="1" parent="snZ278TH5wYI09KBHPFk-1">
          <mxGeometry width="50" height="50" relative="1" as="geometry">
            <mxPoint x="200" y="100" as="sourcePoint" />
            <mxPoint x="200" y="40" as="targetPoint" />
          </mxGeometry>
        </mxCell>
        <mxCell id="snZ278TH5wYI09KBHPFk-17" value="" style="endArrow=none;html=1;fillColor=#f0a30a;strokeColor=#BD7000;strokeWidth=3;" edge="1" parent="snZ278TH5wYI09KBHPFk-1">
          <mxGeometry width="50" height="50" relative="1" as="geometry">
            <mxPoint x="280" y="100" as="sourcePoint" />
            <mxPoint x="280" y="40" as="targetPoint" />
          </mxGeometry>
        </mxCell>
        <mxCell id="snZ278TH5wYI09KBHPFk-18" value="" style="endArrow=none;html=1;fillColor=#f0a30a;strokeColor=#BD7000;strokeWidth=3;" edge="1" parent="snZ278TH5wYI09KBHPFk-1">
          <mxGeometry width="50" height="50" relative="1" as="geometry">
            <mxPoint x="320" y="100" as="sourcePoint" />
            <mxPoint x="320" y="40" as="targetPoint" />
          </mxGeometry>
        </mxCell>
        <mxCell id="snZ278TH5wYI09KBHPFk-19" value="" style="endArrow=none;html=1;fillColor=#f0a30a;strokeColor=#BD7000;strokeWidth=3;" edge="1" parent="snZ278TH5wYI09KBHPFk-1">
          <mxGeometry width="50" height="50" relative="1" as="geometry">
            <mxPoint x="361" y="100" as="sourcePoint" />
            <mxPoint x="361" y="40" as="targetPoint" />
          </mxGeometry>
        </mxCell>
        <mxCell id="snZ278TH5wYI09KBHPFk-20" value="" style="endArrow=none;html=1;fillColor=#f0a30a;strokeColor=#BD7000;strokeWidth=3;" edge="1" parent="snZ278TH5wYI09KBHPFk-1">
          <mxGeometry width="50" height="50" relative="1" as="geometry">
            <mxPoint x="401" y="100" as="sourcePoint" />
            <mxPoint x="401" y="40" as="targetPoint" />
          </mxGeometry>
        </mxCell>
        <mxCell id="snZ278TH5wYI09KBHPFk-21" value="" style="endArrow=none;html=1;fillColor=#f0a30a;strokeColor=#BD7000;strokeWidth=3;" edge="1" parent="snZ278TH5wYI09KBHPFk-1">
          <mxGeometry width="50" height="50" relative="1" as="geometry">
            <mxPoint x="441" y="100" as="sourcePoint" />
            <mxPoint x="441" y="40" as="targetPoint" />
          </mxGeometry>
        </mxCell>
        <mxCell id="snZ278TH5wYI09KBHPFk-22" value="" style="endArrow=none;html=1;fillColor=#f0a30a;strokeColor=#BD7000;strokeWidth=3;" edge="1" parent="snZ278TH5wYI09KBHPFk-1">
          <mxGeometry width="50" height="50" relative="1" as="geometry">
            <mxPoint x="481" y="100" as="sourcePoint" />
            <mxPoint x="481" y="40" as="targetPoint" />
          </mxGeometry>
        </mxCell>
        <mxCell id="snZ278TH5wYI09KBHPFk-23" value="" style="endArrow=none;html=1;fillColor=#f0a30a;strokeColor=#BD7000;strokeWidth=3;" edge="1" parent="snZ278TH5wYI09KBHPFk-1">
          <mxGeometry width="50" height="50" relative="1" as="geometry">
            <mxPoint x="519" y="100" as="sourcePoint" />
            <mxPoint x="519" y="40" as="targetPoint" />
          </mxGeometry>
        </mxCell>
        <mxCell id="snZ278TH5wYI09KBHPFk-24" value="&lt;b&gt;&lt;font style=&quot;font-size: 16px&quot;&gt;CH_10&lt;/font&gt;&lt;/b&gt;" style="text;html=1;strokeColor=none;fillColor=none;align=center;verticalAlign=middle;whiteSpace=wrap;rounded=0;" vertex="1" parent="snZ278TH5wYI09KBHPFk-1">
          <mxGeometry x="220" y="150" width="40" height="20" as="geometry" />
        </mxCell>
        <mxCell id="snZ278TH5wYI09KBHPFk-25" value="&lt;b&gt;&lt;font style=&quot;font-size: 16px&quot;&gt;CH_11&lt;/font&gt;&lt;/b&gt;" style="text;html=1;strokeColor=none;fillColor=none;align=center;verticalAlign=middle;whiteSpace=wrap;rounded=0;" vertex="1" parent="snZ278TH5wYI09KBHPFk-1">
          <mxGeometry x="220" y="229" width="40" height="20" as="geometry" />
        </mxCell>
        <mxCell id="snZ278TH5wYI09KBHPFk-26" value="&lt;b&gt;&lt;font style=&quot;font-size: 16px&quot;&gt;CH_12&lt;/font&gt;&lt;/b&gt;" style="text;html=1;strokeColor=none;fillColor=none;align=center;verticalAlign=middle;whiteSpace=wrap;rounded=0;" vertex="1" parent="snZ278TH5wYI09KBHPFk-1">
          <mxGeometry x="220" y="310" width="40" height="20" as="geometry" />
        </mxCell>
        <mxCell id="snZ278TH5wYI09KBHPFk-27" value="&lt;b&gt;&lt;font style=&quot;font-size: 16px&quot;&gt;CH_13&lt;/font&gt;&lt;/b&gt;" style="text;html=1;strokeColor=none;fillColor=none;align=center;verticalAlign=middle;whiteSpace=wrap;rounded=0;" vertex="1" parent="snZ278TH5wYI09KBHPFk-1">
          <mxGeometry x="220" y="390" width="40" height="20" as="geometry" />
        </mxCell>
        <mxCell id="snZ278TH5wYI09KBHPFk-28" value="" style="endArrow=none;html=1;strokeWidth=3;" edge="1" parent="snZ278TH5wYI09KBHPFk-1">
          <mxGeometry width="50" height="50" relative="1" as="geometry">
            <mxPoint x="440" y="440" as="sourcePoint" />
            <mxPoint x="440" y="120" as="targetPoint" />
          </mxGeometry>
        </mxCell>
        <mxCell id="snZ278TH5wYI09KBHPFk-29" value="&lt;b&gt;&lt;font style=&quot;font-size: 16px&quot;&gt;CH_06&lt;/font&gt;&lt;/b&gt;" style="text;html=1;strokeColor=none;fillColor=none;align=center;verticalAlign=middle;whiteSpace=wrap;rounded=0;" vertex="1" parent="snZ278TH5wYI09KBHPFk-1">
          <mxGeometry x="300" y="150" width="40" height="20" as="geometry" />
        </mxCell>
        <mxCell id="snZ278TH5wYI09KBHPFk-30" value="&lt;b&gt;&lt;font style=&quot;font-size: 16px&quot;&gt;CH_07&lt;/font&gt;&lt;/b&gt;" style="text;html=1;strokeColor=none;fillColor=none;align=center;verticalAlign=middle;whiteSpace=wrap;rounded=0;" vertex="1" parent="snZ278TH5wYI09KBHPFk-1">
          <mxGeometry x="300" y="229" width="40" height="20" as="geometry" />
        </mxCell>
        <mxCell id="snZ278TH5wYI09KBHPFk-31" value="&lt;b&gt;&lt;font style=&quot;font-size: 16px&quot;&gt;CH_08&lt;br&gt;&lt;/font&gt;&lt;/b&gt;" style="text;html=1;strokeColor=none;fillColor=none;align=center;verticalAlign=middle;whiteSpace=wrap;rounded=0;" vertex="1" parent="snZ278TH5wYI09KBHPFk-1">
          <mxGeometry x="300" y="310" width="40" height="20" as="geometry" />
        </mxCell>
        <mxCell id="snZ278TH5wYI09KBHPFk-32" value="&lt;b&gt;&lt;font style=&quot;font-size: 16px&quot;&gt;CH_09&lt;/font&gt;&lt;/b&gt;" style="text;html=1;strokeColor=none;fillColor=none;align=center;verticalAlign=middle;whiteSpace=wrap;rounded=0;" vertex="1" parent="snZ278TH5wYI09KBHPFk-1">
          <mxGeometry x="300" y="390" width="40" height="20" as="geometry" />
        </mxCell>
        <mxCell id="snZ278TH5wYI09KBHPFk-33" value="&lt;b&gt;&lt;font style=&quot;font-size: 16px&quot;&gt;CH_01&lt;/font&gt;&lt;/b&gt;" style="text;html=1;strokeColor=none;fillColor=none;align=center;verticalAlign=middle;whiteSpace=wrap;rounded=0;" vertex="1" parent="snZ278TH5wYI09KBHPFk-1">
          <mxGeometry x="380" y="150" width="40" height="20" as="geometry" />
        </mxCell>
        <mxCell id="snZ278TH5wYI09KBHPFk-34" value="&lt;b&gt;&lt;font style=&quot;font-size: 16px&quot;&gt;CH_00&lt;/font&gt;&lt;/b&gt;" style="text;html=1;strokeColor=none;fillColor=none;align=center;verticalAlign=middle;whiteSpace=wrap;rounded=0;" vertex="1" parent="snZ278TH5wYI09KBHPFk-1">
          <mxGeometry x="380" y="229" width="40" height="20" as="geometry" />
        </mxCell>
        <mxCell id="snZ278TH5wYI09KBHPFk-35" value="&lt;b&gt;&lt;font style=&quot;font-size: 16px&quot;&gt;CH_14&lt;/font&gt;&lt;/b&gt;" style="text;html=1;strokeColor=none;fillColor=none;align=center;verticalAlign=middle;whiteSpace=wrap;rounded=0;" vertex="1" parent="snZ278TH5wYI09KBHPFk-1">
          <mxGeometry x="380" y="310" width="40" height="20" as="geometry" />
        </mxCell>
        <mxCell id="snZ278TH5wYI09KBHPFk-36" value="&lt;b&gt;&lt;font style=&quot;font-size: 16px&quot;&gt;CH_15&lt;br&gt;&lt;/font&gt;&lt;/b&gt;" style="text;html=1;strokeColor=none;fillColor=none;align=center;verticalAlign=middle;whiteSpace=wrap;rounded=0;" vertex="1" parent="snZ278TH5wYI09KBHPFk-1">
          <mxGeometry x="380" y="390" width="40" height="20" as="geometry" />
        </mxCell>
        <mxCell id="snZ278TH5wYI09KBHPFk-37" value="&lt;b&gt;&lt;font style=&quot;font-size: 16px&quot;&gt;CH_05&lt;/font&gt;&lt;/b&gt;" style="text;html=1;strokeColor=none;fillColor=none;align=center;verticalAlign=middle;whiteSpace=wrap;rounded=0;" vertex="1" parent="snZ278TH5wYI09KBHPFk-1">
          <mxGeometry x="460" y="150" width="40" height="20" as="geometry" />
        </mxCell>
        <mxCell id="snZ278TH5wYI09KBHPFk-38" value="&lt;b&gt;&lt;font style=&quot;font-size: 16px&quot;&gt;CH_04&lt;/font&gt;&lt;/b&gt;" style="text;html=1;strokeColor=none;fillColor=none;align=center;verticalAlign=middle;whiteSpace=wrap;rounded=0;" vertex="1" parent="snZ278TH5wYI09KBHPFk-1">
          <mxGeometry x="460" y="229" width="40" height="20" as="geometry" />
        </mxCell>
        <mxCell id="snZ278TH5wYI09KBHPFk-39" value="&lt;b&gt;&lt;font style=&quot;font-size: 16px&quot;&gt;CH_03&lt;/font&gt;&lt;/b&gt;" style="text;html=1;strokeColor=none;fillColor=none;align=center;verticalAlign=middle;whiteSpace=wrap;rounded=0;" vertex="1" parent="snZ278TH5wYI09KBHPFk-1">
          <mxGeometry x="460" y="310" width="40" height="20" as="geometry" />
        </mxCell>
        <mxCell id="snZ278TH5wYI09KBHPFk-40" value="&lt;b&gt;&lt;font style=&quot;font-size: 16px&quot;&gt;CH_02&lt;br&gt;&lt;/font&gt;&lt;/b&gt;" style="text;html=1;strokeColor=none;fillColor=none;align=center;verticalAlign=middle;whiteSpace=wrap;rounded=0;" vertex="1" parent="snZ278TH5wYI09KBHPFk-1">
          <mxGeometry x="460" y="390" width="40" height="20" as="geometry" />
        </mxCell>
      </root>
    </mxGraphModel>
  </diagram>
</mxfile>
